<svg width="20" height="20" viewBox="0 0 20 20" fill="none" xmlns="http://www.w3.org/2000/svg">
<path d="M17.3828 11.0547C17.5391 10.1432 17.5391 9.23177 17.3828 8.32031L19.0234 7.34375C19.1276 7.29167 19.1992 7.21354 19.2383 7.10938C19.2773 7.00521 19.2839 6.90104 19.2578 6.79688C18.8151 5.41667 18.099 4.19271 17.1094 3.125C17.0312 3.04688 16.9401 2.99479 16.8359 2.96875C16.7318 2.94271 16.6276 2.95573 16.5234 3.00781L14.8828 3.98438C14.1797 3.38542 13.3854 2.92969 12.5 2.61719V0.703125C12.5 0.598957 12.4674 0.501301 12.4023 0.410156C12.3372 0.319012 12.2526 0.260418 12.1484 0.234375C10.7161 -0.078125 9.28385 -0.078125 7.85156 0.234375C7.7474 0.260418 7.66276 0.319012 7.59766 0.410156C7.53255 0.501301 7.5 0.598957 7.5 0.703125V2.61719C6.61458 2.92969 5.82031 3.38542 5.11719 3.98438L3.47656 3.00781C3.3724 2.95573 3.26823 2.94271 3.16406 2.96875C3.0599 2.99479 2.96875 3.04688 2.89063 3.125C1.90104 4.19271 1.1849 5.41667 0.742188 6.79688C0.716146 6.90104 0.722656 7.00521 0.761719 7.10938C0.800781 7.21354 0.872396 7.29167 0.976563 7.34375L2.61719 8.32031C2.46094 9.23177 2.46094 10.1432 2.61719 11.0547L0.976563 12.0312C0.872396 12.0833 0.800781 12.1615 0.761719 12.2656C0.722656 12.3698 0.716146 12.474 0.742188 12.5781C1.1849 13.9583 1.90104 15.1823 2.89063 16.25C2.96875 16.3281 3.0599 16.3802 3.16406 16.4062C3.26823 16.4323 3.3724 16.4193 3.47656 16.3672L5.11719 15.3906C5.82031 15.9896 6.61458 16.4453 7.5 16.7578V18.6719C7.5 18.776 7.53255 18.8737 7.59766 18.9648C7.66276 19.056 7.7474 19.1146 7.85156 19.1406C9.28385 19.4531 10.7161 19.4531 12.1484 19.1406C12.2526 19.1146 12.3372 19.056 12.4023 18.9648C12.4674 18.8737 12.5 18.776 12.5 18.6719V16.7578C13.3854 16.4453 14.1797 15.9896 14.8828 15.3906L16.5234 16.3672C16.6276 16.4193 16.7318 16.4323 16.8359 16.4062C16.9401 16.3802 17.0313 16.3281 17.1094 16.25C18.099 15.1823 18.8151 13.9583 19.2578 12.5781C19.2839 12.474 19.2773 12.3698 19.2383 12.2656C19.1992 12.1615 19.1276 12.0833 19.0234 12.0312L17.3828 11.0547ZM13.125 9.6875C13.125 10.5469 12.819 11.2826 12.207 11.8945C11.5951 12.5065 10.8594 12.8125 10 12.8125C9.14062 12.8125 8.40495 12.5065 7.79297 11.8945C7.18099 11.2826 6.875 10.5469 6.875 9.6875C6.875 8.82812 7.18099 8.09245 7.79297 7.48047C8.40495 6.86849 9.14062 6.5625 10 6.5625C10.8594 6.5625 11.5951 6.86849 12.207 7.48047C12.819 8.09245 13.125 8.82812 13.125 9.6875Z" fill="url(#paint0_linear_1_145)"/>
<defs>
<linearGradient id="paint0_linear_1_145" x1="5.36328" y1="4.84375" x2="5.36328" y2="4.84375" gradientUnits="userSpaceOnUse">
<stop offset="1" stop-color="#FF6A00"/>
<stop stop-color="#EE0979"/>
</linearGradient>
</defs>
</svg>
